# Blender v2.69 (sub 0) OBJ File: ''
# www.blender.org
o Cube
v 1.180375 -0.271599 -1.000000
v 0.483690 -1.328926 1.000000
v -0.997232 -0.588709 1.000000
v -0.338582 -0.930248 -1.000000
v 0.487135 0.718158 -1.000000
v 0.930248 0.338583 1.000000
v -0.416706 1.579052 1.000000
v -1.328926 0.483690 -1.000000
vt 0.235894 0.511679
vt 0.235894 0.266366
vt 0.478410 0.266366
vt 0.235894 0.744863
vt 0.478410 0.744863
vt 0.235894 0.978608
vt 0.007942 0.266366
vt 0.007942 0.051004
vt 0.235894 0.051004
vt 0.478410 0.051004
vt 0.699207 0.266366
vt 0.478410 0.511679
vt 0.478410 0.978608
vt 0.699207 0.051004
vn -0.378518 -0.757286 -0.532204
vn -0.125144 0.969293 0.211686
vn 0.705872 0.494403 0.507258
vn -0.000001 -0.000000 1.000000
vn -0.908197 0.243215 -0.340625
vn 0.000000 0.000000 -1.000000
vn 0.382321 -0.881698 0.276475
vn 0.551885 0.599259 -0.579923
vn 0.934168 -0.250170 -0.254450
vn 0.000000 0.000000 1.000000
vn -0.674859 -0.472682 0.566689
s off
f 1/1/1 2/2/1 3/3/1
f 5/4/2 8/5/2 6/6/2
f 1/7/3 5/8/3 2/2/3
f 2/2/4 6/9/4 7/10/4
f 3/3/5 7/10/5 4/11/5
f 5/4/6 1/1/6 8/5/6
f 4/12/7 1/1/7 3/3/7
f 8/5/8 7/13/8 6/6/8
f 5/8/9 6/9/9 2/2/9
f 3/3/10 2/2/10 7/10/10
f 7/10/11 8/14/11 4/11/11
f 1/1/6 4/12/6 8/5/6
